# xmcd
#
# Track frame offsets: 
#        150
#        19992
#        49692
#        71687
#        87821
#        121682
#        139022
#        166270
#        173770
#        193880
#        206177
#
# Disc length: 3126 seconds
#
# Revision: 3
# Processed by: cddbd v1.5.2PL0 Copyright (c) Steve Scherf et al.
# Submitted via: ExactAudioCopyFreeDBPlugin 1.0
#
DISCID=970c340b
DTITLE=Carl Verheyen - Slang Justice
DYEAR=1996
DGENRE=Blues
TTITLE0=Down Like Hail
TTITLE1=Slang Justice
TTITLE2=Jet Plane Blues
TTITLE3=Two Trains Running
TTITLE4=Spotty Herbert
TTITLE5=Little Swamp
TTITLE6=Passing Through
TTITLE7=Loud Guy Blues
TTITLE8=Silence Is Golden (Sonny's Blues)
TTITLE9=Silence Is Golden (Part 2)
TTITLE10=Lights Out (Live)
EXTD=
EXTT0=
EXTT1=
EXTT2=
EXTT3=
EXTT4=
EXTT5=
EXTT6=
EXTT7=
EXTT8=
EXTT9=
EXTT10=
PLAYORDER=
